<?xml version="1.0" encoding="UTF-8"?>
<!DOCTYPE svg PUBLIC "-//W3C//DTD SVG 1.1//EN" "http://www.w3.org/Graphics/SVG/1.1/DTD/svg11.dtd">
<!-- Creator: CorelDRAW -->
<svg xmlns="http://www.w3.org/2000/svg" xml:space="preserve" width="256px" height="256px" style="shape-rendering:geometricPrecision; text-rendering:geometricPrecision; image-rendering:optimizeQuality; fill-rule:evenodd; clip-rule:evenodd"
viewBox="0 0 256 256"
 xmlns:xlink="http://www.w3.org/1999/xlink">
 <defs>
  <style type="text/css">
   <![CDATA[
    .str0 {stroke:#2B2A29;stroke-width:0.01536}
    .fil0 {fill:#2B2A29}
    .fil2 {fill:#2BFFFA;fill-rule:nonzero}
    .fil1 {fill:white;fill-rule:nonzero}
   ]]>
  </style>
 </defs>
 <g id="Camada_x0020_1">
  <metadata id="CorelCorpID_0Corel-Layer"/>
  <g id="_407111136">
   <path id="_539549408" class="fil0" d="M12.4552 130.942l21.42 -80.9931c0.634287,-2.39778 4.16283,-5.48136 6.63881,-6.11253 11.408,-2.908 117.155,-30.7947 125.89,-33.1192 2.61724,-0.696482 6.69949,1.06016 7.99814,2.94007l70.8763 101.23c0.934589,1.04184 1.89359,3.72736 1.84363,6.38001 -0.0331992,1.76732 -0.738843,3.52051 -1.37728,4.76386l-46.8547 65.1244c-2.66035,3.69756 -4.28339,4.56882 -5.74583,5.27678l-2.49775 1.20934 -104.876 47.6695c-5.90185,2.68245 -13.5535,-1.41242 -15.2075,-4.41085l-57.7448 -104.681c-0.987998,-1.79098 -0.788049,-3.44188 -0.362927,-5.27716l-0.000377263 0z"/>
   <g id="_741128264">
    <path id="_728469664" class="fil1 str0" d="M155.81 20.5424c2.82101,-0.668241 6.07518,-0.580446 8.48018,1.22729 1.74209,1.1174 2.8706,2.96373 3.62658,4.84783 0.733885,2.85955 -1.32576,5.62063 -3.81817,6.79828 -3.32509,1.38035 -7.47186,1.24906 -10.3261,-1.13378 -2.36646,-2.02148 -3.5003,-5.66983 -1.96118,-8.51833 0.794139,-1.58337 2.2791,-2.7828 3.9991,-3.22129l-0.000431158 0z"/>
    <path id="_728469424" class="fil1 str0" d="M133.383 26.4587c4.59593,-0.443823 10.0578,2.37757 10.9832,7.23645 0.0713566,2.41605 -0.859783,5.28627 -3.29227,6.26133 -3.50068,1.90092 -7.86653,1.19986 -11.1535,-0.805241 -1.63258,-1.32004 -3.2484,-3.23735 -3.07324,-5.46719 -0.394617,-3.74682 3.00188,-6.80362 6.53538,-7.22572l0.000377263 0.000377263z"/>
    <path id="_728469760" class="fil1 str0" d="M192.594 66.8922c4.05935,-0.783522 8.803,0.624317 11,4.31659 1.67074,2.27905 1.42422,5.65873 -0.482035,7.72948 -1.68179,2.33935 -4.74931,3.00188 -7.46652,2.82096 -4.44292,0.137 -9.12088,-3.45104 -9.12621,-8.09084 -0.180925,-3.41294 2.70611,-6.49685 6.07512,-6.77619l-0.000377263 0z"/>
    <path id="_728469544" class="fil1 str0" d="M34.9426 88.8151c1.79135,-0.493029 3.90597,-0.219028 5.19319,1.23268 3.7964,3.36901 2.61831,10.3097 -1.95584,12.3968 -2.17492,0.449213 -4.49752,-0.931139 -5.36301,-2.95262 -0.60831,-1.58871 -1.34219,-3.23773 -1.19415,-4.97411 0.416391,-2.1967 1.47348,-4.3548 3.31981,-5.70271z"/>
    <path id="_741194184" class="fil1 str0" d="M94.5654 98.692c3.79069,-0.454494 7.92678,0.772419 10.4192,3.76897 1.55017,1.75853 2.49775,4.16892 2.06498,6.52962 -0.586159,2.77181 -2.91409,5.11116 -5.70799,5.65879 -3.48424,0.772419 -7.41198,0.65757 -10.4795,-1.34753 -2.81562,-1.91192 -4.65624,-5.60953 -3.58804,-8.98388 0.898371,-3.19919 3.97161,-5.53817 7.29137,-5.62596z"/>
    <path id="_741191736" class="fil1 str0" d="M148.228 113.504c5.81217,-1.40245 12.6544,2.32259 13.7279,8.39772 0.295774,3.9991 -3.52773,7.25854 -7.36234,7.29137 -2.53629,0.0164379 -5.17675,0.262952 -7.5707,-0.761317 -3.1225,-0.947577 -5.46719,-3.88382 -5.77401,-7.11583 0.279714,-3.78535 3.24306,-7.11049 6.97921,-7.81156l0 -0.000377263z"/>
    <path id="_741191520" class="fil1 str0" d="M213.685 123.409c2.86488,-1.19948 5.29165,-3.37435 8.37023,-4.06474 2.52524,-0.142336 5.27522,-0.449159 7.54327,0.942242 2.66795,1.48453 5.46142,4.11395 5.14393,7.4448 -0.295774,2.90875 -2.79353,4.95201 -5.3573,5.95451 -5.78468,2.30621 -11.427,4.95772 -17.2396,7.19258 -2.42101,-2.30621 -5.42866,-4.09223 -7.2143,-6.98454 -1.5284,-2.30621 -0.963961,-5.79579 1.42428,-7.30209 2.29511,-1.36963 4.93557,-2.00505 7.32952,-3.18275z"/>
    <path id="_741191568" class="fil1 str0" d="M38.7772 136.43c1.11206,-2.33364 3.93879,-3.04042 6.27243,-3.40184 2.61837,1.81884 5.03447,5.22601 3.74682,8.51294 -2.30082,6.26138 -4.86422,12.435 -7.79512,18.4281 -0.679289,1.55589 -2.38285,2.96906 -4.14138,2.68967 -2.21308,-2.03787 -4.19069,-4.33869 -5.99309,-6.74908 2.58016,-6.51895 4.88103,-13.1524 7.91035,-19.4798z"/>
    <path id="_741190800" class="fil1 str0" d="M186.683 186.242c3.29232,-1.3914 6.69949,-2.48703 10.1673,-3.34724 -2.35008,4.06474 -6.34912,6.86393 -10.0796,9.58647 -4.90275,3.63197 -10.6985,5.7683 -16.4943,7.50473 1.00789,-2.59126 3.13888,-4.47003 5.09472,-6.34341 3.42932,-2.9309 7.09945,-5.69732 11.3122,-7.40093l-0.000377263 0.000377263z"/>
    <path id="_741190920" class="fil1 str0" d="M60.1086 197.23c3.53884,-0.706776 5.98733,2.70611 7.86114,5.17142 3.3854,4.08113 -1.39679,11.274 -6.46403,9.47162 -2.88698,-0.980776 -3.54417,-4.24561 -4.11395,-6.84754 -0.246515,-2.73893 0.0385347,-6.31059 2.71721,-7.79512l-0.000377263 -0.000377263z"/>
    <path id="_741192432" class="fil2 str0" d="M92.8236 37.3874c7.18724,-0.640755 14.0622,2.42144 20.0221,6.15758 3.83995,2.15848 8.10194,3.45104 11.8762,5.74653 2.76108,1.68717 5.78506,3.04575 9.0278,3.44571 4.49746,0.887269 9.12621,-0.0660211 13.421,-1.45171 6.71588,-2.47064 13.6237,-4.33869 20.5041,-6.2831 3.45104,-0.898371 6.86969,-2.11461 10.4577,-2.32259 2.91986,0.0492598 5.29699,2.04897 7.36768,3.89492 1.17237,1.22729 2.64585,2.72821 2.19664,4.57987 -1.13416,2.43211 -3.14993,4.49175 -5.59842,5.60381 -14.4675,5.12183 -29.3075,9.08811 -43.9666,13.6184 -1.01322,0.279336 -2.08707,0.624748 -3.14422,0.356083 -4.29482,-1.16132 -8.34846,-3.04047 -12.2926,-5.06729 -7.20362,-3.33614 -14.1992,-7.19823 -21.7532,-9.69599 -6.79295,-1.77497 -14.0401,-1.27084 -20.6907,0.876598 -5.08367,1.6433 -10.4738,2.47598 -15.2124,5.03975 -6.57354,3.13888 -11.8762,8.77018 -14.7633,15.4426 -0.865496,2.03792 -2.21303,4.14677 -4.43144,4.85354 -1.93369,0.564062 -3.75786,-0.843776 -4.82072,-2.33364 -1.56122,-2.08179 -1.36391,-4.8425 -1.37502,-7.3078 0.0164379,-3.54988 1.46815,-6.87503 3.07286,-9.97575 2.21879,-4.10856 5.05085,-7.96494 8.72669,-10.8901 4.88637,-4.03192 10.8027,-6.67772 16.916,-8.23361 5.37411,-1.16666 10.7917,-2.31192 15.9082,-4.39334 2.71721,-1.1506 5.65879,-1.30932 8.5511,-1.66007l0.000377263 -0.000377263z"/>
    <path id="_741192000" class="fil2 str0" d="M81.6919 70.3485c6.77085,-3.04575 14.9881,-2.71716 21.4795,0.90942 6.79834,3.66479 13.7661,7.02804 20.8933,10.0139 3.0347,1.40245 6.27782,2.55272 9.65788,2.56377 5.28627,0.230131 10.4085,-1.33686 15.3929,-2.88703 4.54672,-1.50625 9.07738,-3.06214 13.6184,-4.56844 2.47064,-0.81629 5.1546,-1.19986 7.72414,-0.613645 3.49491,0.805241 6.60097,3.62086 7.35701,7.18719 0.520515,2.98011 -1.40784,5.98199 -4.22389,6.97344 -11.4106,4.3769 -23.0514,8.14015 -34.7086,11.816 -2.98016,1.0628 -6.23923,0.558673 -9.09878,-0.624371 -8.73736,-3.70332 -17.398,-7.59247 -25.8618,-11.8873 -4.57949,-2.59659 -9.90968,-4.65624 -15.2345,-3.41288 -8.84154,2.01609 -16.7298,7.80617 -21.386,15.5795 -2.35579,4.03192 -4.63446,8.13482 -6.28882,12.512 -1.31471,3.40184 -3.79645,6.71054 -7.46658,7.69094 -5.31375,1.38606 -10.8134,0.339645 -16.2096,0.377802 -2.05431,0.0328219 -4.64519,0.377856 -5.51645,2.55272 -2.56911,5.38478 -4.62341,11 -6.86964,16.5271 -2.88703,-0.717447 -5.10011,-3.20986 -6.32703,-5.82861 -0.476645,-2.55267 -0.498419,-5.33553 0.339645,-7.82261 1.6322,-4.20702 3.21558,-8.43625 4.79857,-12.6597 0.827015,-2.39929 2.90881,-4.25095 5.33553,-4.92452 3.55527,-0.701063 7.2254,0.0164379 10.8081,-0.481981 2.98545,-0.367131 6.47508,-0.0492598 8.67172,-2.53095 3.62086,-4.16321 4.85926,-9.72924 7.37878,-14.5331 2.76103,-5.03404 6.48612,-9.50444 10.7642,-13.3226 4.34402,-3.86738 9.71237,-6.2671 14.9716,-8.60607l0.000377263 0z"/>
    <path id="_741128144" class="fil2 str0" d="M201.803 94.1999c4.37151,-2.08713 9.50439,-2.80457 14.1771,-1.31471 2.62942,0.750269 5.24239,2.55806 5.98733,5.31381 1.17237,4.10284 -2.36646,7.69094 -6.03697,8.80872 -4.36046,1.79135 -8.81939,3.31404 -13.2676,4.83711 -2.76642,1.00789 -5.74119,2.12566 -7.58714,4.54672 -1.49024,1.98295 -2.58549,4.3223 -2.85955,6.80901 -0.504131,6.19569 -2.64046,12.1666 -2.75531,18.4116 0.0820278,4.48641 -2.28444,8.85264 -5.95456,11.3943 -4.31659,2.95268 -9.25788,4.76575 -14.0454,6.79295 -10.7367,4.52462 -21.8188,8.20617 -32.4681,12.9498 -8.27753,3.7251 -15.3823,9.75096 -21.0029,16.8176 -3.1446,4.14143 -6.32697,8.25533 -9.41131,12.4407 -0.498419,0.706722 -1.19409,1.22691 -1.90087,1.71461 -0.860214,-5.01226 -1.38606,-10.0742 -2.26229,-15.0811 -0.20798,-2.54733 -0.95868,-5.06724 -0.695727,-7.63101 0.317494,-1.09563 1.08991,-1.96651 1.74748,-2.86488 3.65902,-4.70011 7.46119,-9.30714 11.608,-13.5856 4.22917,-4.13033 9.26898,-7.58137 15.0155,-9.18118 5.68051,-1.63791 11.0271,-4.16353 16.3573,-6.66699 6.5079,-2.95268 14.2591,-3.16637 19.8633,-7.97071 5.26988,-4.38795 7.25283,-11.3229 8.32097,-17.8365 0.607933,-4.46469 1.24906,-8.92362 1.67613,-13.4047 0.411001,-3.08962 1.88982,-6.27777 4.83711,-7.68022 6.58464,-3.30337 13.9909,-4.49752 20.6579,-7.61996l-0.000377263 0.000754526z"/>
    <path id="_741127208" class="fil2 str0" d="M73.1794 118.292c1.41317,-0.350693 3.10606,-0.268665 4.20174,0.805241 1.68717,1.51164 2.62408,3.61553 3.75253,5.53283 0.481981,0.958626 1.27084,1.96118 0.920468,3.10606 -1.03532,4.29482 -2.01038,8.72098 -4.49213,12.4571 -5.73014,10.6985 -12.1339,21.0464 -17.2121,32.0846 -1.83522,3.71399 -3.53884,7.49401 -5.28098,11.2519 -0.931139,1.91731 -1.91725,4.11395 -4.05364,4.94662 -1.9062,-0.0549187 -3.42927,-1.57227 -4.34408,-3.12816 -1.5284,-2.78285 -1.89553,-6.27243 -0.690338,-9.24683 3.6373,-9.8712 8.70987,-19.1127 12.9227,-28.7324 3.57166,-8.24961 7.42837,-16.3684 10.9451,-24.6455 0.816344,-1.63258 1.42428,-3.76891 3.33048,-4.43182l0.000377263 0.000377263z"/>
    <path id="_741125384" class="fil2 str0" d="M118.11 124.472c3.92769,-0.651803 8.16759,0.383569 11.345,2.78857 1.74215,1.48987 3.71971,3.44571 3.44037,5.95456 -0.295774,3.00188 -2.63513,5.33019 -5.22068,6.62275 -3.16632,1.58337 -6.38728,3.05147 -9.53721,4.67262 -4.65624,2.37223 -9.71242,4.21813 -13.5962,7.83371 -6.39838,5.72438 -9.84409,13.7607 -13.9363,21.1177 -2.07608,3.42927 -2.30621,7.53788 -1.857,11.427 1.14489,8.41453 2.73359,16.7573 4.44826,25.0676 0.591495,2.67868 0.607933,5.53283 -0.224795,8.16225 -1.71466,5.68627 -4.40439,11.1863 -8.48018,15.5574 -1.64325,1.583 -3.6262,3.34686 -6.07512,3.16637 -1.71461,0.131665 -3.15527,-1.10096 -3.90591,-2.53629 -1.39679,-2.67329 -1.75282,-5.81217 -1.31471,-8.77018 0.931139,-4.1853 4.55777,-7.18147 5.26455,-11.4435 0.859783,-4.68372 -0.744933,-9.27965 -1.32581,-13.8867 -0.405288,-3.61019 -1.07924,-7.19252 -2.14167,-10.6657 -1.68717,-4.97944 -1.82989,-10.4413 -0.783468,-15.5631 2.70611,-9.40598 8.21717,-17.6339 13.5363,-25.7305 3.56632,-6.71625 9.0499,-12.1995 15.0975,-16.7134 4.72188,-3.02937 9.88801,-5.46148 15.2674,-7.06129l-0.000377263 0z"/>
    <path id="_741125504" class="fil2 str0" d="M216.785 147.824c1.58871,-0.72316 3.31404,-1.04642 5.05619,-1.04642 -0.695727,1.96123 -0.975064,4.31659 -2.61303,5.77364 -1.60515,1.08463 -3.46214,1.72576 -5.19319,2.56916 -10.9779,5.14926 -22.0546,10.0906 -33.1256,15.0262 -0.684625,0.405288 -1.42422,-0.0438703 -2.10885,-0.18626 -0.0111023,-1.48453 -0.164487,-3.11711 0.750646,-4.39328 1.50097,-2.52524 4.31126,-3.69222 6.8857,-4.79324 10.0959,-4.36046 20.2305,-8.63356 30.3482,-12.9502l0 0.000377263z"/>
    <path id="_741124640" class="fil2 str0" d="M201.392 170.914c2.87065,-2.61303 5.79045,-5.1657 8.62785,-7.81727 0.942242,0.920522 1.77497,1.95013 2.48708,3.06219 -3.2816,2.69544 -6.37661,5.63701 -9.79488,8.15691 -1.37496,-0.148103 -2.89231,-2.42144 -1.32004,-3.40184z"/>
    <path id="_741122864" class="fil2 str0" d="M183.364 175.949c4.4593,-1.62687 8.52938,-4.3223 13.2242,-5.3027 -4.37151,10.4028 -17.3656,16.5107 -27.9981,12.2544 -3.34724,-1.52269 -7.19252,-2.16382 -10.7588,-1.01893 -12.5444,4.45359 -24.4539,10.4742 -36.8285,15.3494 0.832674,-2.22946 2.36075,-4.08113 3.91664,-5.83966 5.17675,-6.19003 12.238,-10.3425 19.3264,-13.9909 4.3112,-2.01577 8.87436,-3.41822 13.3883,-4.89741 2.36113,-0.821625 4.90846,-0.558727 7.36234,-0.548002 2.86488,-0.0274863 5.19852,1.82951 7.66917,3.00188 3.26484,1.65969 7.18185,1.95584 10.6985,0.991448l0 0.000377263z"/>
    <path id="_741122480" class="fil2 str0" d="M135.683 198.857c6.07512,-5.71904 13.8321,-9.32886 21.7203,-11.8106 3.13312,-0.536953 6.38195,0.630083 9.07167,2.18559 -0.854878,1.38606 -2.20241,2.29548 -3.75792,2.72826 -12.0625,4.0372 -22.0928,12.2106 -31.4766,20.5315 -3.9113,3.18281 -7.21467,7.03914 -11.2191,10.1124 -6.33274,4.72226 -13.8428,7.36272 -20.7564,11.0603 -0.958626,0.454494 -1.9394,1.08458 -3.04575,0.936906 -0.849112,-0.816344 -2.56377,-2.30087 -1.11206,-3.35797 2.86488,-2.88698 5.31914,-6.46397 9.34567,-7.82261 12.6433,-4.88098 21.9394,-15.1415 31.2301,-24.5634l0 -0.000377263z"/>
    <path id="_741129320" class="fil2 str0" d="M157.924 200.271c2.09818,-0.964392 4.45359,-1.46276 6.77085,-1.30937 -1.05176,1.94479 -2.88703,3.23735 -4.48641,4.70016 -2.39929,2.05964 -4.57954,4.3658 -7.09406,6.29415 -0.120616,-3.71971 1.61043,-7.66917 4.80962,-9.68494z"/>
    <path id="_741129584" class="fil2 str0" d="M138.45 211.49c3.17171,-2.62942 6.09151,-5.55461 9.35634,-8.08022 0.268288,3.07858 -1.05747,6.08046 -3.12245,8.30459 -2.2791,2.02148 -5.52179,2.58555 -8.48018,2.41039 0.569398,-1.01899 1.33115,-1.91197 2.2459,-2.63475l0.000377263 0z"/>
    <path id="_741129248" class="fil2 str0" d="M115.371 207.036c2.17487,-2.02148 5.34657,-2.39934 8.17863,-2.0051 -3.78535,3.9113 -8.00881,7.3845 -12.1396,10.9176 0.224795,-3.30337 1.52845,-6.61741 3.96056,-8.91295l0.000377263 0.000431158z"/>
   </g>
  </g>
 </g>
</svg>
